<mxfile host="Electron" agent="Mozilla/5.0 (Windows NT 10.0; Win64; x64) AppleWebKit/537.36 (KHTML, like Gecko) draw.io/24.7.17 Chrome/128.0.6613.36 Electron/32.0.1 Safari/537.36" version="24.7.17">
  <diagram name="1 oldal" id="qWtwz7hUE2l_n0rwlmwr">
    <mxGraphModel dx="794" dy="511" grid="1" gridSize="10" guides="1" tooltips="1" connect="1" arrows="1" fold="1" page="1" pageScale="1" pageWidth="827" pageHeight="1169" math="0" shadow="0">
      <root>
        <mxCell id="0" />
        <mxCell id="1" parent="0" />
        <mxCell id="0yXyCy88KaYCrPfsAq2b-2" value="Payment Processing" style="shape=folder;fontStyle=1;spacingTop=10;tabWidth=40;tabHeight=14;tabPosition=left;html=1;whiteSpace=wrap;fillColor=#FAE5C7;strokeColor=#0F8B8D;labelBackgroundColor=none;fontColor=#143642;rounded=1;" vertex="1" parent="1">
          <mxGeometry x="329" y="20" width="170" height="110" as="geometry" />
        </mxCell>
        <mxCell id="0yXyCy88KaYCrPfsAq2b-3" value="Accommodation Catalog" style="shape=folder;fontStyle=1;spacingTop=10;tabWidth=40;tabHeight=14;tabPosition=left;html=1;whiteSpace=wrap;fillColor=#FAE5C7;strokeColor=#0F8B8D;labelBackgroundColor=none;fontColor=#143642;rounded=1;" vertex="1" parent="1">
          <mxGeometry x="320" y="490" width="160" height="120" as="geometry" />
        </mxCell>
        <mxCell id="0yXyCy88KaYCrPfsAq2b-4" value="User Management" style="shape=folder;fontStyle=1;spacingTop=10;tabWidth=40;tabHeight=14;tabPosition=left;html=1;whiteSpace=wrap;fillColor=#FAE5C7;strokeColor=#0F8B8D;labelBackgroundColor=none;fontColor=#143642;rounded=1;" vertex="1" parent="1">
          <mxGeometry x="450" y="340" width="140" height="110" as="geometry" />
        </mxCell>
        <mxCell id="0yXyCy88KaYCrPfsAq2b-5" value="Booking Management" style="shape=folder;fontStyle=1;spacingTop=10;tabWidth=40;tabHeight=14;tabPosition=left;html=1;whiteSpace=wrap;fillColor=#FAE5C7;strokeColor=#0F8B8D;labelBackgroundColor=none;fontColor=#143642;rounded=1;" vertex="1" parent="1">
          <mxGeometry x="270" y="690" width="260" height="110" as="geometry" />
        </mxCell>
        <mxCell id="0yXyCy88KaYCrPfsAq2b-6" value="Notifications" style="shape=folder;fontStyle=1;spacingTop=10;tabWidth=40;tabHeight=14;tabPosition=left;html=1;whiteSpace=wrap;fillColor=#FAE5C7;strokeColor=#0F8B8D;labelBackgroundColor=none;fontColor=#143642;rounded=1;" vertex="1" parent="1">
          <mxGeometry x="450" y="180" width="120" height="100" as="geometry" />
        </mxCell>
        <mxCell id="0yXyCy88KaYCrPfsAq2b-8" style="edgeStyle=orthogonalEdgeStyle;rounded=1;orthogonalLoop=1;jettySize=auto;html=1;entryX=0;entryY=0;entryDx=0;entryDy=62;entryPerimeter=0;fillColor=#FAE5C7;strokeColor=#A8201A;strokeWidth=2;labelBackgroundColor=none;fontColor=default;" edge="1" parent="1" source="0yXyCy88KaYCrPfsAq2b-2" target="0yXyCy88KaYCrPfsAq2b-5">
          <mxGeometry relative="1" as="geometry">
            <Array as="points">
              <mxPoint x="200" y="75" />
              <mxPoint x="200" y="390" />
              <mxPoint x="100" y="390" />
              <mxPoint x="100" y="752" />
            </Array>
          </mxGeometry>
        </mxCell>
        <mxCell id="0yXyCy88KaYCrPfsAq2b-9" style="edgeStyle=orthogonalEdgeStyle;rounded=1;orthogonalLoop=1;jettySize=auto;html=1;entryX=0;entryY=0;entryDx=20;entryDy=0;entryPerimeter=0;strokeWidth=2;fillColor=#FAE5C7;strokeColor=#A8201A;labelBackgroundColor=none;fontColor=default;" edge="1" parent="1" source="0yXyCy88KaYCrPfsAq2b-6" target="0yXyCy88KaYCrPfsAq2b-5">
          <mxGeometry relative="1" as="geometry">
            <Array as="points">
              <mxPoint x="360" y="230" />
              <mxPoint x="360" y="430" />
              <mxPoint x="290" y="430" />
            </Array>
          </mxGeometry>
        </mxCell>
        <mxCell id="0yXyCy88KaYCrPfsAq2b-11" style="edgeStyle=orthogonalEdgeStyle;rounded=1;orthogonalLoop=1;jettySize=auto;html=1;entryX=0;entryY=0;entryDx=90;entryDy=14;entryPerimeter=0;strokeWidth=2;fillColor=#FAE5C7;strokeColor=#A8201A;labelBackgroundColor=none;fontColor=default;" edge="1" parent="1" source="0yXyCy88KaYCrPfsAq2b-6" target="0yXyCy88KaYCrPfsAq2b-4">
          <mxGeometry relative="1" as="geometry" />
        </mxCell>
        <mxCell id="0yXyCy88KaYCrPfsAq2b-12" style="edgeStyle=orthogonalEdgeStyle;rounded=1;orthogonalLoop=1;jettySize=auto;html=1;entryX=0.567;entryY=0.106;entryDx=0;entryDy=0;entryPerimeter=0;strokeWidth=2;fillColor=#FAE5C7;strokeColor=#A8201A;labelBackgroundColor=none;fontColor=default;" edge="1" parent="1" source="0yXyCy88KaYCrPfsAq2b-4" target="0yXyCy88KaYCrPfsAq2b-3">
          <mxGeometry relative="1" as="geometry" />
        </mxCell>
        <mxCell id="0yXyCy88KaYCrPfsAq2b-13" style="edgeStyle=orthogonalEdgeStyle;rounded=1;orthogonalLoop=1;jettySize=auto;html=1;entryX=0;entryY=0;entryDx=150;entryDy=14;entryPerimeter=0;strokeWidth=2;fillColor=#FAE5C7;strokeColor=#A8201A;labelBackgroundColor=none;fontColor=default;" edge="1" parent="1" source="0yXyCy88KaYCrPfsAq2b-3" target="0yXyCy88KaYCrPfsAq2b-5">
          <mxGeometry relative="1" as="geometry" />
        </mxCell>
        <mxCell id="0yXyCy88KaYCrPfsAq2b-14" style="edgeStyle=orthogonalEdgeStyle;rounded=1;orthogonalLoop=1;jettySize=auto;html=1;entryX=0;entryY=0;entryDx=140;entryDy=62;entryPerimeter=0;strokeWidth=2;fillColor=#FAE5C7;strokeColor=#A8201A;labelBackgroundColor=none;fontColor=default;" edge="1" parent="1" source="0yXyCy88KaYCrPfsAq2b-5" target="0yXyCy88KaYCrPfsAq2b-4">
          <mxGeometry relative="1" as="geometry">
            <Array as="points">
              <mxPoint x="610" y="745" />
              <mxPoint x="610" y="402" />
            </Array>
          </mxGeometry>
        </mxCell>
        <mxCell id="0yXyCy88KaYCrPfsAq2b-15" style="edgeStyle=orthogonalEdgeStyle;rounded=1;orthogonalLoop=1;jettySize=auto;html=1;entryX=0.611;entryY=0.127;entryDx=0;entryDy=0;entryPerimeter=0;strokeWidth=2;fillColor=#FAE5C7;strokeColor=#A8201A;labelBackgroundColor=none;fontColor=default;" edge="1" parent="1" source="0yXyCy88KaYCrPfsAq2b-2" target="0yXyCy88KaYCrPfsAq2b-6">
          <mxGeometry relative="1" as="geometry" />
        </mxCell>
      </root>
    </mxGraphModel>
  </diagram>
</mxfile>
